<svg width="238.403" height="144.001" viewBox="0 0 238.403 144.001" xmlns="http://www.w3.org/2000/svg">
  <g id="svgGroup" stroke-linecap="round" fill-rule="evenodd" font-size="9pt" stroke="#bc03bb" stroke-width="0.25mm"
    fill="#bc03bb" style="stroke:#bc03bb;stroke-width:0.25mm;fill:#bc03bb">
    <path
      d="M 124.001 136.8 L 124.001 25 A 29.33 29.33 0 0 1 124.792 17.987 A 19.894 19.894 0 0 1 130.401 8.1 Q 136.285 2.492 146.565 2.04 A 41.802 41.802 0 0 1 148.401 2 L 182.401 2 Q 231.466 2 237.542 38.387 A 66.9 66.9 0 0 1 238.401 49.4 A 52.218 52.218 0 0 1 236.711 63.069 A 36.924 36.924 0 0 1 224.101 82.6 Q 212.805 91.763 193.71 93.688 A 106.878 106.878 0 0 1 183.001 94.2 L 136.801 94.2 L 136.801 136.8 Q 136.801 139.389 135.815 141.108 A 5.835 5.835 0 0 1 135.101 142.1 A 5.57 5.57 0 0 1 131.819 143.882 A 8.111 8.111 0 0 1 130.401 144 A 7.623 7.623 0 0 1 128.412 143.755 A 5.465 5.465 0 0 1 125.701 142.1 Q 124.001 140.2 124.001 136.8 Z M 0.001 118.8 L 0.001 7.2 A 11.663 11.663 0 0 1 0.173 5.131 Q 0.526 3.177 1.601 1.9 Q 3.201 0 6.201 0 Q 9.401 0 11.101 1.9 Q 12.801 3.8 12.801 7.2 L 12.801 119.2 A 15.78 15.78 0 0 0 13.188 122.797 A 10.737 10.737 0 0 0 15.801 127.8 A 9.965 9.965 0 0 0 21.978 130.885 A 14.009 14.009 0 0 0 23.801 131 L 90.801 131 A 12.845 12.845 0 0 1 93.356 131.231 Q 97.801 132.138 97.801 136.6 A 5.984 5.984 0 0 1 97.571 138.306 A 4.439 4.439 0 0 1 96.001 140.6 A 5.914 5.914 0 0 1 94.158 141.545 Q 92.74 142 90.801 142 L 24.401 142 A 34.858 34.858 0 0 1 17.194 141.301 Q 12.699 140.35 9.286 138.11 A 19.583 19.583 0 0 1 6.401 135.8 Q 0.001 129.6 0.001 118.8 Z M 183.401 12.8 L 147.801 12.8 A 12.276 12.276 0 0 0 144.2 13.304 A 9.662 9.662 0 0 0 139.801 16.1 A 11.364 11.364 0 0 0 137 22.045 A 15.759 15.759 0 0 0 136.801 24.6 L 136.801 83.2 L 183.201 83.2 A 77.346 77.346 0 0 0 198.603 81.806 Q 225.401 76.335 225.401 49.4 Q 225.401 36.988 221.012 28.964 A 25.424 25.424 0 0 0 214.901 21.5 A 33.191 33.191 0 0 0 204.289 15.747 Q 199.448 14.101 193.498 13.375 A 83.464 83.464 0 0 0 183.401 12.8 Z"
      vector-effect="non-scaling-stroke" />
  </g>
</svg>