<svg width="1095.402" height="201.802" viewBox="0 0 1095.402 201.802" xmlns="http://www.w3.org/2000/svg">
  <g id="svgGroup" stroke-linecap="round" fill-rule="evenodd" font-size="9pt" stroke="#bc03bb" stroke-width="0.25mm"
    fill="#bc03bb" style="stroke:#bc03bb;stroke-width:0.25mm;fill:#bc03bb">
    <path
      d="M 1082.601 148.801 L 1082.601 134.201 Q 1076.201 143.001 1066.301 147.701 A 48.487 48.487 0 0 1 1051.423 151.941 A 61.365 61.365 0 0 1 1043.801 152.401 A 66.841 66.841 0 0 1 1028.083 150.659 A 44.894 44.894 0 0 1 1005.901 138.301 Q 992.87 124.89 992.233 101.617 A 88.383 88.383 0 0 1 992.201 99.201 L 992.201 58.401 A 7.115 7.115 0 0 1 992.539 56.161 A 5.921 5.921 0 0 1 994.001 53.801 A 6.073 6.073 0 0 1 997.916 52.029 A 8.164 8.164 0 0 1 998.601 52.001 A 7.115 7.115 0 0 1 1000.841 52.34 A 5.921 5.921 0 0 1 1003.201 53.801 A 6.073 6.073 0 0 1 1004.972 57.717 A 8.164 8.164 0 0 1 1005.001 58.401 L 1005.001 99.201 A 64.547 64.547 0 0 0 1006.099 111.489 Q 1007.504 118.731 1010.708 124.386 A 34.319 34.319 0 0 0 1015.201 130.601 A 33.323 33.323 0 0 0 1033.474 140.788 A 49.897 49.897 0 0 0 1043.801 141.801 A 49.987 49.987 0 0 0 1055.081 140.605 Q 1063.179 138.73 1068.947 133.916 A 30.49 30.49 0 0 0 1071.801 131.201 A 34.487 34.487 0 0 0 1079.411 117.519 Q 1081.601 110.265 1081.601 101.001 L 1081.601 60.401 A 13.6 13.6 0 0 1 1081.823 57.866 Q 1082.096 56.424 1082.708 55.285 A 7.196 7.196 0 0 1 1083.501 54.101 A 6.164 6.164 0 0 1 1088.012 51.822 A 8.422 8.422 0 0 1 1088.601 51.801 A 7.579 7.579 0 0 1 1091.615 52.356 Q 1094.88 53.761 1095.329 58.726 A 18.619 18.619 0 0 1 1095.401 60.401 L 1095.401 148.401 A 61.968 61.968 0 0 1 1093.51 163.989 A 51.609 51.609 0 0 1 1088.701 176.101 Q 1082.001 188.201 1070.001 195.001 A 52.354 52.354 0 0 1 1050.004 201.373 A 65.892 65.892 0 0 1 1042.401 201.801 Q 1027.601 201.801 1016.001 197.501 Q 1004.401 193.201 999.201 185.601 A 5.318 5.318 0 0 1 998.282 183.293 A 7.083 7.083 0 0 1 998.201 182.201 Q 998.201 179.201 1000.801 177.201 A 6.09 6.09 0 0 1 1003.232 176.44 A 7.556 7.556 0 0 1 1004.001 176.401 A 6.714 6.714 0 0 1 1009.105 178.622 A 8.888 8.888 0 0 1 1009.601 179.201 A 23.416 23.416 0 0 0 1014.692 183.78 Q 1017.16 185.449 1020.269 186.796 A 45.294 45.294 0 0 0 1022.801 187.801 A 53.904 53.904 0 0 0 1038.336 190.907 A 62.831 62.831 0 0 0 1041.801 191.001 A 50.109 50.109 0 0 0 1054.555 189.464 A 35.842 35.842 0 0 0 1071.601 179.601 A 38.121 38.121 0 0 0 1081.359 160.933 A 56.151 56.151 0 0 0 1082.601 148.801 Z M 172.601 146.601 L 172.601 7.201 A 12.164 12.164 0 0 1 172.876 4.487 Q 173.907 0.001 178.801 0.001 Q 185.001 0.001 185.001 7.201 L 185.001 98.001 L 251.201 52.601 A 6.193 6.193 0 0 1 252.824 51.711 A 5.222 5.222 0 0 1 254.601 51.401 A 4.751 4.751 0 0 1 258.358 53.118 A 6.797 6.797 0 0 1 259.001 54.001 A 7.874 7.874 0 0 1 259.59 55.125 Q 260.001 56.104 260.001 57.001 A 5.348 5.348 0 0 1 258.058 61.245 A 7.692 7.692 0 0 1 257.001 62.001 L 221.401 86.401 A 106.511 106.511 0 0 1 237.615 99.473 A 85.158 85.158 0 0 1 248.501 112.601 A 89.394 89.394 0 0 1 260.084 137.96 A 107.451 107.451 0 0 1 262.201 146.801 Q 262.44 148.598 262.034 150.036 A 5.806 5.806 0 0 1 261.201 151.801 A 4.512 4.512 0 0 1 258.362 153.643 A 7.246 7.246 0 0 1 256.801 153.801 A 9.365 9.365 0 0 1 254.214 153.471 Q 251.282 152.629 250.243 149.634 A 8.828 8.828 0 0 1 250.001 148.801 A 125.215 125.215 0 0 0 246.184 134.925 Q 242.483 124.111 237.201 116.501 A 64.591 64.591 0 0 0 228.824 106.819 Q 221.569 99.851 211.001 93.201 L 185.001 111.201 L 185.001 146.601 A 11.663 11.663 0 0 1 184.828 148.671 Q 184.476 150.625 183.401 151.901 Q 181.801 153.801 178.801 153.801 A 7.553 7.553 0 0 1 176.908 153.578 A 5.118 5.118 0 0 1 174.201 151.901 Q 172.851 150.298 172.64 147.627 A 13.036 13.036 0 0 1 172.601 146.601 Z M 496.601 73.001 L 496.801 7.201 A 12.164 12.164 0 0 1 497.076 4.487 Q 498.107 0.001 503.001 0.001 Q 509.201 0.001 509.201 7.201 L 509.201 146.601 A 11.663 11.663 0 0 1 509.028 148.671 Q 508.676 150.625 507.601 151.901 Q 506.001 153.801 503.001 153.801 A 7.553 7.553 0 0 1 501.108 153.578 A 5.118 5.118 0 0 1 498.401 151.901 Q 497.051 150.298 496.84 147.627 A 13.036 13.036 0 0 1 496.801 146.601 L 496.801 132.001 Q 489.601 142.801 478.401 148.301 A 53.172 53.172 0 0 1 462.446 153.122 A 68.932 68.932 0 0 1 452.601 153.801 A 74.696 74.696 0 0 1 436.689 152.206 Q 426.212 149.922 418.351 144.368 A 44.156 44.156 0 0 1 413.401 140.301 Q 399.201 126.801 399.201 103.401 A 60.508 60.508 0 0 1 401.162 87.732 A 51.351 51.351 0 0 1 405.401 76.901 A 44.486 44.486 0 0 1 423.777 58.514 A 53.514 53.514 0 0 1 423.801 58.501 A 52.822 52.822 0 0 1 439.745 52.95 A 72.918 72.918 0 0 1 453.001 51.801 A 65.616 65.616 0 0 1 464.299 52.726 Q 472.026 54.076 478.201 57.401 A 58.749 58.749 0 0 1 494.303 70.276 A 68.792 68.792 0 0 1 496.601 73.001 Z M 365.601 107.801 L 289.401 107.801 A 40.387 40.387 0 0 0 290.783 118.659 A 29.406 29.406 0 0 0 300.101 133.401 Q 309.129 141.164 324.351 142.377 A 73.685 73.685 0 0 0 330.201 142.601 A 88.938 88.938 0 0 0 339.192 142.173 Q 345.547 141.526 350.601 139.901 A 45.611 45.611 0 0 0 363.59 133.203 A 53.774 53.774 0 0 0 366.401 131.001 A 16.294 16.294 0 0 1 367.952 129.711 Q 370.038 128.201 371.801 128.201 A 4.277 4.277 0 0 1 374.111 128.89 A 5.804 5.804 0 0 1 374.801 129.401 A 8.397 8.397 0 0 1 376.066 130.69 Q 376.775 131.603 377.041 132.59 A 4.635 4.635 0 0 1 377.201 133.801 A 4.627 4.627 0 0 1 376.532 136.165 Q 376.157 136.806 375.572 137.425 A 8.872 8.872 0 0 1 375.401 137.601 A 51.153 51.153 0 0 1 351.844 151.128 Q 343.66 153.384 333.878 153.736 A 102.131 102.131 0 0 1 330.201 153.801 Q 310.698 153.801 297.938 146.087 A 42.48 42.48 0 0 1 290.401 140.301 A 43.875 43.875 0 0 1 278.452 119.333 Q 276.401 111.495 276.401 102.001 A 60.771 60.771 0 0 1 278.329 86.272 A 43.781 43.781 0 0 1 290.701 65.301 A 47.637 47.637 0 0 1 312.352 53.78 Q 319.794 51.929 328.583 51.81 A 89.705 89.705 0 0 1 329.801 51.801 Q 345.201 51.801 357.101 56.701 A 49.573 49.573 0 0 1 367.092 62.152 A 38.564 38.564 0 0 1 375.601 70.401 Q 382.201 79.201 382.201 90.601 Q 382.201 97.791 378.647 102.234 A 14.501 14.501 0 0 1 377.801 103.201 A 14.441 14.441 0 0 1 370.353 107.306 A 21.562 21.562 0 0 1 365.601 107.801 Z M 788.401 100.801 L 788.401 87.001 A 28.393 28.393 0 0 0 787.482 79.56 A 19.712 19.712 0 0 0 780.601 69.001 A 25.118 25.118 0 0 0 772.788 64.902 Q 769.221 63.72 764.862 63.203 A 61.787 61.787 0 0 0 757.601 62.801 A 64.957 64.957 0 0 0 738.956 65.388 A 55.346 55.346 0 0 0 724.601 72.001 A 16.898 16.898 0 0 1 722.969 72.828 Q 721.199 73.598 719.812 73.601 A 5.061 5.061 0 0 1 719.801 73.601 Q 718.433 73.601 716.918 72.724 A 9.702 9.702 0 0 1 716.401 72.401 A 5.069 5.069 0 0 1 714.421 68.719 A 6.389 6.389 0 0 1 714.401 68.201 A 5.463 5.463 0 0 1 714.826 66.017 Q 715.322 64.865 716.399 64.003 A 7.272 7.272 0 0 1 716.401 64.001 A 50.094 50.094 0 0 1 725.251 58.7 A 68.577 68.577 0 0 1 734.701 55.101 Q 745.601 51.801 757.201 51.801 A 73.99 73.99 0 0 1 769.7 52.789 Q 781.697 54.849 789.401 61.201 Q 800.801 70.601 800.801 87.801 L 800.801 146.601 A 12.624 12.624 0 0 1 800.543 149.274 Q 799.704 153.132 796.125 153.702 A 8.419 8.419 0 0 1 794.801 153.801 Q 792.001 153.801 790.301 151.901 Q 788.641 150.047 788.602 146.954 A 11.872 11.872 0 0 1 788.601 146.801 L 788.601 138.601 A 39.213 39.213 0 0 1 774.571 149.139 A 46.347 46.347 0 0 1 772.801 149.901 A 52.009 52.009 0 0 1 760.501 153.145 A 68.919 68.919 0 0 1 750.801 153.801 A 72.276 72.276 0 0 1 738.853 152.875 Q 732.323 151.779 727.076 149.386 A 35.163 35.163 0 0 1 720.101 145.201 A 27.894 27.894 0 0 1 709.153 124.717 A 39.625 39.625 0 0 1 709.001 121.201 A 32.263 32.263 0 0 1 710.899 109.908 A 28.165 28.165 0 0 1 720.501 97.201 Q 732.001 88.401 752.201 88.401 Q 764.401 88.401 774.001 91.701 A 43.171 43.171 0 0 1 780.281 94.396 Q 783.591 96.161 786.054 98.368 A 22.73 22.73 0 0 1 788.401 100.801 Z M 921.001 125.201 L 921.001 64.401 L 909.801 64.401 A 13.306 13.306 0 0 1 907.246 64.179 Q 903.167 63.376 902.831 59.687 A 7.561 7.561 0 0 1 902.801 59.001 A 5.418 5.418 0 0 1 903.295 56.606 Q 904.66 53.801 909.801 53.801 L 921.001 53.801 L 921.001 18.801 A 11.663 11.663 0 0 1 921.173 16.732 Q 921.526 14.778 922.601 13.501 Q 924.201 11.601 927.201 11.601 A 7.553 7.553 0 0 1 929.093 11.825 A 5.118 5.118 0 0 1 931.801 13.501 Q 933.151 15.104 933.362 17.775 A 13.036 13.036 0 0 1 933.401 18.801 L 933.401 53.801 L 962.001 53.801 A 13.846 13.846 0 0 1 964.534 54.012 Q 969.001 54.847 969.001 59.001 A 5.863 5.863 0 0 1 968.535 61.427 Q 967.404 63.939 963.521 64.33 A 15.235 15.235 0 0 1 962.001 64.401 L 933.401 64.401 L 933.401 126.201 A 25.662 25.662 0 0 0 934.102 132.491 Q 936.175 140.664 944.371 142.23 A 22.561 22.561 0 0 0 948.601 142.601 A 25.397 25.397 0 0 0 953.172 142.209 A 18.858 18.858 0 0 0 957.701 140.801 A 18.346 18.346 0 0 0 961.214 138.636 Q 962.73 137.466 964.229 135.893 A 35.309 35.309 0 0 0 965.401 134.601 Q 968.05 131.952 970.341 131.809 A 4.177 4.177 0 0 1 970.601 131.801 A 4.709 4.709 0 0 1 973.059 132.509 A 6.568 6.568 0 0 1 974.001 133.201 A 5.245 5.245 0 0 1 975.16 134.285 A 4.006 4.006 0 0 1 976.001 136.801 A 5.72 5.72 0 0 1 975.613 138.819 Q 975.326 139.584 974.825 140.377 A 11.538 11.538 0 0 1 974.401 141.001 A 26.753 26.753 0 0 1 966.8 148.28 A 33.829 33.829 0 0 1 963.201 150.301 Q 956.001 153.801 948.201 153.801 A 32.821 32.821 0 0 1 939.662 152.75 A 23.633 23.633 0 0 1 928.301 146.001 A 26.358 26.358 0 0 1 921.787 133.173 A 38.393 38.393 0 0 1 921.001 125.201 Z M 582.401 146.601 L 582.401 34.801 A 29.33 29.33 0 0 1 583.192 27.788 A 19.894 19.894 0 0 1 588.801 17.901 Q 594.685 12.293 604.965 11.841 A 41.802 41.802 0 0 1 606.801 11.801 L 640.801 11.801 Q 689.866 11.801 695.942 48.188 A 66.9 66.9 0 0 1 696.801 59.201 A 52.218 52.218 0 0 1 695.111 72.87 A 36.924 36.924 0 0 1 682.501 92.401 Q 671.205 101.564 652.11 103.489 A 106.878 106.878 0 0 1 641.401 104.001 L 595.201 104.001 L 595.201 146.601 Q 595.201 149.19 594.215 150.909 A 5.835 5.835 0 0 1 593.501 151.901 A 5.57 5.57 0 0 1 590.219 153.683 A 8.111 8.111 0 0 1 588.801 153.801 A 7.623 7.623 0 0 1 586.812 153.556 A 5.465 5.465 0 0 1 584.101 151.901 Q 582.401 150.001 582.401 146.601 Z M 0.001 128.601 L 0.001 17.001 A 11.663 11.663 0 0 1 0.173 14.932 Q 0.526 12.978 1.601 11.701 Q 3.201 9.801 6.201 9.801 Q 9.401 9.801 11.101 11.701 Q 12.801 13.601 12.801 17.001 L 12.801 129.001 A 15.78 15.78 0 0 0 13.188 132.598 A 10.737 10.737 0 0 0 15.801 137.601 A 9.965 9.965 0 0 0 21.978 140.686 A 14.009 14.009 0 0 0 23.801 140.801 L 90.801 140.801 A 12.845 12.845 0 0 1 93.356 141.032 Q 97.801 141.939 97.801 146.401 A 5.984 5.984 0 0 1 97.571 148.107 A 4.439 4.439 0 0 1 96.001 150.401 A 5.914 5.914 0 0 1 94.158 151.346 Q 92.74 151.801 90.801 151.801 L 24.401 151.801 A 34.858 34.858 0 0 1 17.194 151.102 Q 12.699 150.151 9.286 147.911 A 19.583 19.583 0 0 1 6.401 145.601 Q 0.001 139.401 0.001 128.601 Z M 830.201 146.601 L 830.201 59.001 A 12.164 12.164 0 0 1 830.476 56.287 Q 831.507 51.801 836.401 51.801 A 7.553 7.553 0 0 1 838.293 52.025 A 5.118 5.118 0 0 1 841.001 53.701 Q 842.351 55.304 842.562 57.975 A 13.036 13.036 0 0 1 842.601 59.001 L 842.601 72.001 A 47.738 47.738 0 0 1 851.794 62.733 A 41.732 41.732 0 0 1 859.101 58.301 Q 868.601 53.801 881.201 53.801 L 886.201 53.801 Q 889.601 53.801 891.501 55.301 A 4.839 4.839 0 0 1 893.378 58.846 A 6.652 6.652 0 0 1 893.401 59.401 A 5.672 5.672 0 0 1 892.893 61.889 Q 891.737 64.285 887.953 64.71 A 15.749 15.749 0 0 1 886.201 64.801 L 880.801 64.801 A 51.605 51.605 0 0 0 869.224 66.025 Q 859.415 68.282 852.801 74.701 A 32.827 32.827 0 0 0 843.43 92.483 A 47.795 47.795 0 0 0 842.601 101.601 L 842.601 146.601 A 11.663 11.663 0 0 1 842.428 148.671 Q 842.076 150.625 841.001 151.901 Q 839.401 153.801 836.401 153.801 A 7.553 7.553 0 0 1 834.508 153.578 A 5.118 5.118 0 0 1 831.801 151.901 Q 830.451 150.298 830.24 147.627 A 13.036 13.036 0 0 1 830.201 146.601 Z M 641.801 22.601 L 606.201 22.601 A 12.276 12.276 0 0 0 602.6 23.105 A 9.662 9.662 0 0 0 598.201 25.901 A 11.364 11.364 0 0 0 595.4 31.846 A 15.759 15.759 0 0 0 595.201 34.401 L 595.201 93.001 L 641.601 93.001 A 77.346 77.346 0 0 0 657.003 91.607 Q 683.801 86.136 683.801 59.201 Q 683.801 46.789 679.412 38.765 A 25.424 25.424 0 0 0 673.301 31.301 A 33.191 33.191 0 0 0 662.689 25.549 Q 657.848 23.902 651.898 23.176 A 83.464 83.464 0 0 0 641.801 22.601 Z M 453.201 142.601 A 62.71 62.71 0 0 0 466.186 141.337 Q 474.381 139.602 480.619 135.487 A 35.929 35.929 0 0 0 485.201 131.901 A 35.304 35.304 0 0 0 496.163 111.003 A 50.712 50.712 0 0 0 496.801 102.801 A 42.958 42.958 0 0 0 495.438 91.755 A 34.441 34.441 0 0 0 490.801 81.401 Q 484.801 72.401 474.901 67.601 Q 465.001 62.801 453.601 62.801 A 56.186 56.186 0 0 0 441.028 64.125 Q 432.083 66.178 425.641 71.415 A 34.334 34.334 0 0 0 422.801 74.001 A 37.789 37.789 0 0 0 412.405 95.255 A 52.933 52.933 0 0 0 411.801 103.401 A 56.529 56.529 0 0 0 412.855 114.694 Q 414.197 121.267 417.244 126.292 A 29.148 29.148 0 0 0 422.601 132.801 A 35.299 35.299 0 0 0 436.373 140.376 Q 443.765 142.601 453.201 142.601 Z M 126.001 146.601 L 126.001 59.001 A 12.164 12.164 0 0 1 126.276 56.287 Q 127.307 51.801 132.201 51.801 A 7.553 7.553 0 0 1 134.093 52.025 A 5.118 5.118 0 0 1 136.801 53.701 Q 138.151 55.304 138.362 57.975 A 13.036 13.036 0 0 1 138.401 59.001 L 138.401 146.601 A 11.663 11.663 0 0 1 138.228 148.671 Q 137.876 150.625 136.801 151.901 Q 135.201 153.801 132.201 153.801 A 7.553 7.553 0 0 1 130.308 153.578 A 5.118 5.118 0 0 1 127.601 151.901 Q 126.251 150.298 126.04 147.627 A 13.036 13.036 0 0 1 126.001 146.601 Z M 289.601 97.401 L 362.001 97.401 A 14.873 14.873 0 0 0 364.077 97.267 Q 366.441 96.932 367.73 95.767 A 4.488 4.488 0 0 0 367.801 95.701 A 4.949 4.949 0 0 0 368.983 93.899 Q 369.601 92.345 369.601 90.001 Q 369.601 82.201 364.501 76.001 A 29.701 29.701 0 0 0 357.034 69.591 A 40.746 40.746 0 0 0 350.301 66.301 A 51.956 51.956 0 0 0 338.027 63.293 A 66.548 66.548 0 0 0 329.801 62.801 Q 310.801 62.801 300.201 71.901 Q 289.601 81.001 289.601 97.401 Z M 751.801 142.801 Q 768.201 142.801 778.401 136.501 A 25.919 25.919 0 0 0 783.78 132.183 A 17.273 17.273 0 0 0 788.601 120.001 A 16.033 16.033 0 0 0 782.623 107.213 A 24.287 24.287 0 0 0 779.001 104.701 Q 769.401 99.201 752.201 99.201 Q 737.401 99.201 729.501 104.901 A 18.34 18.34 0 0 0 721.757 118.317 A 25.889 25.889 0 0 0 721.601 121.201 A 23.144 23.144 0 0 0 722.552 128.024 A 17.445 17.445 0 0 0 729.301 137.301 Q 734.801 141.23 743.925 142.353 A 64.67 64.67 0 0 0 751.801 142.801 Z M 541.035 150.804 A 10.638 10.638 0 0 0 545.201 151.601 A 9.582 9.582 0 0 0 549.167 150.768 Q 550.807 150.032 552.252 148.648 A 13.308 13.308 0 0 0 552.301 148.601 A 12.432 12.432 0 0 0 552.766 148.126 A 9.311 9.311 0 0 0 555.401 141.601 Q 555.401 137.601 552.301 134.501 A 12.83 12.83 0 0 0 551.599 133.849 A 9.553 9.553 0 0 0 545.201 131.401 Q 541.001 131.401 537.901 134.401 A 12.148 12.148 0 0 0 537.71 134.59 A 9.628 9.628 0 0 0 534.801 141.601 A 9.396 9.396 0 0 0 535.623 145.515 A 10.455 10.455 0 0 0 537.801 148.601 A 10.081 10.081 0 0 0 541.035 150.804 Z M 132.201 29.601 Q 128.201 29.601 125.401 26.901 A 9.094 9.094 0 0 1 123.216 23.722 A 8.866 8.866 0 0 1 122.601 20.401 A 8.826 8.826 0 0 1 125.3 13.999 A 11.677 11.677 0 0 1 125.501 13.801 Q 128.401 11.001 132.201 11.001 Q 136.001 11.001 139.001 13.901 A 10.894 10.894 0 0 1 140.858 16.224 A 8.143 8.143 0 0 1 142.001 20.401 A 8.152 8.152 0 0 1 140.03 25.712 A 11.469 11.469 0 0 1 139.001 26.801 A 10.723 10.723 0 0 1 136.012 28.811 A 9.346 9.346 0 0 1 132.201 29.601 Z"
      vector-effect="non-scaling-stroke" />
  </g>
</svg>