<svg width="436" height="132" xmlns="http://www.w3.org/2000/svg" fill="none">
  <path fill="#1ED760" d="m103.834,58.333c-21.031,-12.595 -55.718,-13.755 -75.795,-7.612c-0.769,0.232 -1.577,0.31 -2.377,0.23c-0.799,-0.08 -1.575,-0.318 -2.282,-0.699c-0.707,-0.381 -1.332,-0.897 -1.838,-1.52c-0.506,-0.623 -0.884,-1.339 -1.111,-2.108c-0.475,-1.556 -0.314,-3.236 0.447,-4.674c0.761,-1.438 2.061,-2.518 3.616,-3.004c23.044,-7.057 61.358,-5.693 85.57,8.8c2.9,1.738 3.853,5.511 2.133,8.431c-0.403,0.694 -0.94,1.301 -1.58,1.785c-0.64,0.485 -1.371,0.838 -2.149,1.039c-0.778,0.2 -1.588,0.245 -2.384,0.13c-0.795,-0.115 -1.56,-0.386 -2.25,-0.798zm-0.689,18.656c-0.345,0.573 -0.8,1.071 -1.34,1.467c-0.54,0.395 -1.153,0.68 -1.804,0.837c-0.65,0.157 -1.326,0.183 -1.987,0.078c-0.662,-0.106 -1.295,-0.342 -1.864,-0.693c-17.531,-10.874 -44.268,-14.02 -65.013,-7.667c-0.642,0.193 -1.316,0.258 -1.983,0.19c-0.667,-0.067 -1.314,-0.266 -1.903,-0.584c-0.59,-0.318 -1.111,-0.749 -1.533,-1.268c-0.422,-0.52 -0.737,-1.118 -0.926,-1.759c-0.392,-1.297 -0.256,-2.696 0.378,-3.893c0.635,-1.198 1.717,-2.097 3.012,-2.504c23.694,-7.254 53.155,-3.74 73.293,8.745c2.387,1.485 3.142,4.642 1.67,7.051zm-7.982,17.914c-0.274,0.459 -0.637,0.859 -1.068,1.177c-0.431,0.317 -0.92,0.546 -1.441,0.673c-0.52,0.127 -1.06,0.15 -1.589,0.066c-0.53,-0.084 -1.037,-0.271 -1.492,-0.552c-15.326,-9.444 -34.604,-11.578 -57.317,-6.342c-0.523,0.118 -1.064,0.132 -1.592,0.041c-0.528,-0.091 -1.033,-0.286 -1.486,-0.573c-0.452,-0.286 -0.843,-0.66 -1.151,-1.098c-0.307,-0.438 -0.524,-0.933 -0.639,-1.455c-0.245,-1.056 -0.06,-2.166 0.513,-3.087c0.574,-0.92 1.489,-1.576 2.547,-1.825c24.852,-5.731 46.17,-3.261 63.37,7.337c0.922,0.575 1.58,1.488 1.832,2.543c0.251,1.056 0.076,2.167 -0.487,3.095zm-29.918,-94.903c-36.038,0 -65.245,29.458 -65.245,65.797c0,36.344 29.207,65.796 65.245,65.796c36.032,0 65.244,-29.452 65.244,-65.796c0,-36.339 -29.212,-65.797 -65.25,-65.797l0.006,0zm112.257,60.742c-11.262,-2.711 -13.269,-4.609 -13.269,-8.607c0,-3.773 3.528,-6.314 8.765,-6.314c5.078,0 10.116,1.93 15.398,5.901c0.16,0.121 0.358,0.165 0.556,0.138c0.098,-0.016 0.191,-0.05 0.274,-0.102c0.083,-0.052 0.155,-0.12 0.212,-0.201l5.501,-7.821c0.109,-0.155 0.155,-0.345 0.13,-0.533c-0.026,-0.187 -0.121,-0.358 -0.267,-0.479c-6.285,-5.087 -13.364,-7.557 -21.638,-7.557c-12.162,0 -20.657,7.359 -20.657,17.892c0,11.297 7.332,15.29 19.995,18.381c10.778,2.502 12.597,4.603 12.597,8.354c0,4.153 -3.677,6.738 -9.598,6.738c-6.577,0 -11.941,-2.233 -17.939,-7.475c-0.073,-0.065 -0.159,-0.115 -0.252,-0.146c-0.093,-0.031 -0.191,-0.043 -0.289,-0.036c-0.098,0.008 -0.193,0.035 -0.28,0.081c-0.087,0.045 -0.164,0.108 -0.226,0.184l-6.169,7.403c-0.125,0.147 -0.188,0.338 -0.175,0.531c0.014,0.193 0.102,0.374 0.247,0.503c6.985,6.286 15.568,9.603 24.83,9.603c13.109,0 21.577,-7.222 21.577,-18.398c0,-9.449 -5.596,-14.674 -19.323,-18.04zm58.491,12.661c0,7.975 -4.873,13.547 -11.852,13.547c-6.891,0 -12.095,-5.819 -12.095,-13.547c0,-7.722 5.198,-13.541 12.1,-13.541c6.864,0 11.847,5.693 11.847,13.541zm-9.515,-23.87c-5.678,0 -10.342,2.261 -14.184,6.886l0,-5.203c0.001,-0.196 -0.075,-0.385 -0.212,-0.525c-0.138,-0.14 -0.325,-0.22 -0.521,-0.223l-10.089,0c-0.098,0.001 -0.194,0.021 -0.284,0.059c-0.09,0.038 -0.172,0.093 -0.241,0.162c-0.068,0.07 -0.122,0.152 -0.159,0.242c-0.037,0.091 -0.055,0.188 -0.055,0.285l0,57.827c0,0.413 0.331,0.748 0.739,0.748l10.089,0c0.196,-0.003 0.383,-0.083 0.521,-0.223c0.137,-0.14 0.213,-0.329 0.212,-0.525l0,-18.254c3.848,4.35 8.506,6.473 14.184,6.473c10.557,0 21.241,-8.195 21.241,-23.859c0,-15.669 -10.684,-23.87 -21.241,-23.87zm48.634,37.499c-7.233,0 -12.679,-5.857 -12.679,-13.629c0,-7.799 5.259,-13.464 12.514,-13.464c7.277,0 12.762,5.863 12.762,13.64c0,7.794 -5.292,13.453 -12.597,13.453zm0,-37.493c-13.594,0 -24.245,10.56 -24.245,24.035c0,13.332 10.579,23.782 24.08,23.782c13.639,0 24.322,-10.522 24.322,-23.953c0,-13.381 -10.606,-23.87 -24.157,-23.87l0,0.006zm53.188,0.929l-11.097,0l0,-11.44c0.001,-0.098 -0.017,-0.195 -0.053,-0.285c-0.037,-0.091 -0.091,-0.174 -0.16,-0.243c-0.068,-0.07 -0.15,-0.125 -0.241,-0.163c-0.09,-0.038 -0.187,-0.057 -0.285,-0.057l-10.088,0c-0.196,0.003 -0.382,0.082 -0.52,0.221c-0.137,0.139 -0.214,0.326 -0.214,0.522l0,11.445l-4.851,0c-0.097,0.001 -0.194,0.021 -0.284,0.059c-0.089,0.038 -0.171,0.093 -0.239,0.163c-0.068,0.069 -0.122,0.152 -0.158,0.242c-0.036,0.09 -0.054,0.187 -0.052,0.284l0,8.745c0,0.407 0.331,0.743 0.733,0.743l4.851,0l0,22.621c0,9.141 4.51,13.778 13.407,13.778c3.617,0 6.616,-0.754 9.449,-2.376c0.114,-0.065 0.209,-0.159 0.275,-0.272c0.065,-0.113 0.1,-0.241 0.1,-0.372l0,-8.327c0,-0.127 -0.033,-0.251 -0.094,-0.362c-0.062,-0.11 -0.151,-0.203 -0.258,-0.27c-0.107,-0.067 -0.229,-0.105 -0.354,-0.11c-0.126,-0.006 -0.251,0.02 -0.363,0.077c-1.946,0.99 -3.821,1.441 -5.921,1.441c-3.236,0 -4.686,-1.485 -4.686,-4.802l0,-21.032l11.103,0c0.098,-0.001 0.194,-0.021 0.284,-0.059c0.09,-0.038 0.172,-0.093 0.241,-0.162c0.068,-0.07 0.122,-0.152 0.159,-0.242c0.037,-0.091 0.055,-0.187 0.055,-0.285l0,-8.745c0,-0.097 -0.018,-0.194 -0.055,-0.284c-0.037,-0.09 -0.091,-0.172 -0.16,-0.241c-0.068,-0.069 -0.15,-0.123 -0.24,-0.161c-0.09,-0.037 -0.187,-0.056 -0.284,-0.056l0,0.005zm38.672,0.044l0,-1.402c0,-4.136 1.572,-5.984 5.1,-5.984c2.1,0 3.793,0.423 5.683,1.061c0.112,0.035 0.23,0.044 0.345,0.025c0.115,-0.019 0.224,-0.065 0.317,-0.135c0.096,-0.069 0.174,-0.16 0.228,-0.265c0.053,-0.105 0.081,-0.222 0.081,-0.34l0,-8.569c0.001,-0.159 -0.049,-0.315 -0.144,-0.444c-0.094,-0.129 -0.227,-0.224 -0.38,-0.271c-2.714,-0.833 -5.54,-1.242 -8.379,-1.21c-9.317,0 -14.246,5.291 -14.246,15.29l0,2.156l-4.845,0c-0.197,0.001 -0.385,0.08 -0.523,0.219c-0.138,0.14 -0.216,0.328 -0.216,0.524l0,8.789c0,0.412 0.331,0.748 0.739,0.748l4.851,0l0,34.892c0,0.412 0.325,0.742 0.733,0.742l10.089,0c0.402,0 0.733,-0.33 0.733,-0.742l0,-34.898l9.421,0l14.427,34.881c-1.637,3.669 -3.252,4.4 -5.446,4.4c-1.781,0 -3.65,-0.539 -5.568,-1.595c-0.089,-0.048 -0.186,-0.077 -0.287,-0.087c-0.1,-0.009 -0.202,0.002 -0.298,0.032c-0.096,0.034 -0.184,0.087 -0.259,0.156c-0.075,0.069 -0.135,0.153 -0.176,0.246l-3.418,7.562c-0.08,0.17 -0.091,0.364 -0.033,0.543c0.058,0.179 0.182,0.328 0.347,0.42c3.277,1.875 7,2.836 10.778,2.783c7.442,0 11.56,-3.498 15.193,-12.914l17.498,-45.601c0.044,-0.113 0.06,-0.235 0.046,-0.356c-0.013,-0.121 -0.056,-0.236 -0.123,-0.337c-0.067,-0.099 -0.157,-0.181 -0.263,-0.238c-0.106,-0.056 -0.224,-0.086 -0.344,-0.086l-10.502,0c-0.154,0 -0.304,0.049 -0.43,0.138c-0.125,0.09 -0.22,0.216 -0.27,0.362l-10.755,30.987l-11.781,-31.009c-0.052,-0.141 -0.146,-0.262 -0.269,-0.347c-0.124,-0.086 -0.27,-0.132 -0.42,-0.131l-17.234,0l0,0.005zm-22.42,-0.044l-10.089,0c-0.196,0.003 -0.383,0.083 -0.521,0.223c-0.137,0.14 -0.213,0.329 -0.212,0.525l0,44.38c0,0.412 0.331,0.742 0.739,0.742l10.088,0c0.403,0 0.734,-0.33 0.734,-0.742l0,-44.385c0,-0.196 -0.078,-0.384 -0.217,-0.524c-0.138,-0.139 -0.326,-0.218 -0.522,-0.219zm-4.995,-20.207c-1.928,0.012 -3.772,0.786 -5.129,2.154c-1.356,1.367 -2.112,3.215 -2.104,5.139c-0.005,0.953 0.179,1.898 0.539,2.781c0.362,0.883 0.893,1.686 1.565,2.364c0.673,0.678 1.472,1.217 2.353,1.586c0.881,0.37 1.826,0.562 2.782,0.568c1.929,-0.012 3.774,-0.787 5.13,-2.156c1.357,-1.369 2.113,-3.218 2.103,-5.143c0,-4.031 -3.242,-7.293 -7.233,-7.293l-0.006,0zm88.784,24.624l-1.847,0l0,2.376l1.847,0c0.921,0 1.472,-0.457 1.472,-1.188c0,-0.776 -0.551,-1.188 -1.472,-1.188zm1.196,3.388l2.013,2.838l-1.698,0l-1.803,-2.602l-1.555,0l0,2.602l-1.416,0l0,-7.519l3.318,0c1.731,0 2.872,0.897 2.872,2.398c0.025,0.522 -0.135,1.036 -0.452,1.453c-0.316,0.417 -0.768,0.711 -1.279,0.83zm-1.571,-7.178c-3.638,0 -6.389,2.915 -6.389,6.485c0,3.564 2.734,6.44 6.351,6.44c3.638,0 6.395,-2.915 6.395,-6.484c0,-3.564 -2.74,-6.441 -6.357,-6.441zm-0.038,13.64c-0.938,-0.002 -1.866,-0.189 -2.731,-0.551c-0.865,-0.361 -1.649,-0.889 -2.309,-1.554c-0.659,-0.665 -1.18,-1.454 -1.533,-2.321c-0.353,-0.866 -0.53,-1.794 -0.522,-2.729c0,-3.927 3.142,-7.2 7.133,-7.2c0.938,0.002 1.866,0.189 2.731,0.551c0.865,0.361 1.649,0.889 2.309,1.554c0.659,0.665 1.18,1.454 1.533,2.321c0.353,0.866 0.53,1.794 0.522,2.73c0,3.927 -3.142,7.205 -7.133,7.205l0,-0.006z"/>
</svg>